<?xml version="1.0" encoding="utf-8"?>
<!-- Svg Vector Icons : http://www.onlinewebfonts.com/icon -->
<!DOCTYPE svg PUBLIC "-//W3C//DTD SVG 1.1//EN" "http://www.w3.org/Graphics/SVG/1.1/DTD/svg11.dtd">
<svg version="1.1" xmlns="http://www.w3.org/2000/svg" xmlns:xlink="http://www.w3.org/1999/xlink" x="0px" y="0px" viewBox="0 0 1000 1000" enable-background="new 0 0 1000 1000" xml:space="preserve">
<metadata> Svg Vector Icons : http://www.onlinewebfonts.com/icon </metadata>
<g><g transform="translate(0.000000,511.000000) scale(0.100000,-0.100000)"><path d="M3725.2,4549.1c-130.6-40.5-258.9-130.6-330.9-236.4c-110.3-159.8-123.8-249.9-123.8-882.4v-580.8H2253c-1125.6,0-1181.8-6.8-1456.5-141.8c-186.9-90-436.7-335.4-535.8-522.3C112.1,1899.5,107.6,1877,107.6,879.8V-20.7l2021.5-6.7l2019.3-4.5v-625.8v-625.8l58.5-117.1c65.3-132.8,177.8-238.6,321.9-306.2c92.3-42.8,144.1-47.3,475-47.3c328.7,0,382.7,4.5,472.7,47.3c139.6,65.3,236.4,150.8,310.7,276.9l60.8,103.5l6.7,646.1l6.8,648.3l2019.2,4.5L9900-20.7v900.4c0,866.7-2.2,907.2-49.5,1058c-123.8,393.9-396.2,682.1-787.9,839.7l-153.1,60.8l-1085,6.7l-1085,6.8l-6.7,623.6c-6.7,580.8-9,630.3-54,727.1c-60.8,130.6-191.3,261.1-321.9,321.9c-101.3,45-132.8,47.3-1319.2,51.8C4062.9,4580.6,3801.7,4573.9,3725.2,4549.1z M5859.2,3277.2v-427.7h-855.4h-855.4v427.7V3705h855.4h855.4V3277.2z"/><path d="M105.4-626.2c-6.7-15.7-6.7-621.3-2.3-1343.9c6.8-938.7,15.8-1343.9,36-1416c126.1-468.2,513.3-835.2,981.5-934.2c236.4-49.5,7530-49.5,7766.3,0c375.9,78.8,709.1,333.2,873.4,666.3C9900-3368.1,9900-3374.8,9900-1922.9v1316.9l-1726.6,6.7l-1728.8,4.5v-445.7c0-502-22.5-634.8-141.8-835.2c-94.6-155.3-238.6-283.6-421-371.4l-146.3-69.8h-731.6h-731.6l-146.3,69.8c-182.3,87.8-326.4,216.1-421,371.4c-119.3,200.4-141.8,333.2-141.8,835.2v445.7H1841C400.3-594.7,116.6-599.2,105.4-626.2z"/></g></g>
</svg>